<?xml version='1.0' encoding='utf-8'?>
<svg xmlns="http://www.w3.org/2000/svg" version="1.1" width="600px" height="976px" viewBox="0 0 600 976"> <g id="layer1"> <g style="fill:rgb(0,0,0); fill-opacity:1.0; stroke-linejoin: miter"> <path d="M414.68365,495.02106C415.87253,495.02106,417.19333,495.0411,418.68054,495.07617C426.714,495.297,427.96118,495.45007,434.1447,497.06323C442.87128,499.3817,446.90942,500.83948,454.93338,504.70313C478.85556,516.2435,490.69266,531.1453,495.6169,556.10895C497.53732,565.8947,498.01755,573.0318,497.9772,588.30145C497.90378,598.49207,498.02197,601.8272,498.4035,601.8272C498.43112,601.8272,498.4601,601.80975,498.4905,601.7761C503.5953,596.1508,523.48016,568.10895,532.55035,553.66156C535.0055,549.7761,537.25934,546.5887,537.5093,546.5887C537.5093,546.5887,537.50934,546.5887,537.50934,546.5887C538.05817,546.59015,576.13055,566.4015,577.3757,567.303C578.0728,567.85376,577.32086,569.1493,571.0602,577.8654C555.584,599.3819,541.36536,617.05927,523.3978,637.12213C514.6394,646.8298,493.32413,668.53046,484.01962,677.23865L478.16675,682.6624L473.4436,676.06305C466.9803,667.0138,464.9937,663.4157,462.71667,656.42346C459.30133,645.93524,459.20367,645.0867,458.55237,608.2577C457.8994,572.0278,457.419,564.9904,454.95013,555.0534C452.18506,543.9183,449.40448,538.6712,443.9267,534.36523C439.49493,530.81055,432.61633,527.84827,428.774,527.838C428.76785,527.838,428.76172,527.838,428.75558,527.838C426.21344,527.838,422.97675,529.2248,420.93054,531.2107C418.07904,533.89795,416.9745,536.43994,416.9151,540.0327C416.8485,546.37,420.27417,553.01587,427.9369,561.3695C429.57898,563.1704,430.97174,564.8707,430.92108,565.1201C430.86932,565.81854,409.1663,584.1727,408.36545,584.1727C408.3654,584.1727,408.36536,584.1727,408.3653,584.1727C406.8683,584.1688,397.22723,569.0731,392.562,559.4298C386.55664,547.0386,384.28168,539.2479,383.85773,529.7156C383.38385,520.2331,385.39713,513.7015,391.05518,506.4308C394.20978,502.29724,397.61072,499.41187,401.50787,497.5758C405.68237,495.60748,408.25385,495.02106,414.68365,495.02106 Z"/> </g> <g style="fill:rgb(0,0,0); fill-opacity:1.0; stroke-linejoin: miter"> <path d="M563.2521,397.2645C566.9234,397.2645,570.4841,397.69955,574.827,398.58C583.605,400.29984,589.63464,403.50943,596.2045,409.96396C604.66614,418.17026,610.3728,430.26132,612.2334,443.78952C613.45715,452.77512,612.9153,469.04147,611.14734,477.1706C609.53076,484.60162,606.8638,493.0279,604.30347,498.85956C599.6344,509.576,589.0235,521.6242,580.42914,525.94293C574.1805,529.08417,567.8982,530.65204,561.2852,530.65204C554.7308,530.65204,547.85144,529.1118,540.358,526.0367C538.3143,525.18304,536.51984,524.42975,536.4703,524.3299C536.37054,524.2797,537.57806,520.54034,539.1867,516.0533C540.79535,511.5666,543.46173,503.43964,545.1728,497.95502L548.293,487.9831L549.98895,488.23688C550.9366,488.3891,553.7309,488.4964,556.17596,488.50287C556.26807,488.5031,556.3585,488.50323,556.4473,488.50323C560.1141,488.50323,561.076,488.2878,563.5152,487.12494C566.513,485.68585,569.8653,482.35114,571.4201,479.31134C573.6774,474.87604,574.68756,470.28778,574.7038,464.10007C574.7209,457.6628,574.1275,455.61533,571.1949,451.26633C567.7038,446.22607,558.7073,443.07712,550.39166,443.07712C546.74756,443.07712,543.23425,443.68182,540.3723,444.9971C537.025,446.48538,533.8727,449.72058,532.86707,452.61218C532.4147,453.85852,531.6044,458.34753,530.9945,462.5376C530.33386,467.02643,529.6271,470.21808,529.32745,470.21808C529.3274,470.21808,529.3274,470.21808,529.32733,470.21808C528.7286,470.2165,496.95645,464.54358,496.70737,464.3932C496.65756,464.34326,496.9637,461.79907,497.42087,458.75635C498.43613,452.22192,498.09207,450.22498,495.35562,447.17386C491.92953,443.34378,484.89456,441.3365,477.7789,441.3365C471.97748,441.3365,466.12247,442.67075,462.12582,445.43924C459.17648,447.42752,458.07364,449.32092,457.8154,452.61365C457.60934,455.05835,457.80685,455.85718,458.89963,457.75635C461.23447,461.75464,466.61417,465.41162,473.0961,467.37488L475.53946,468.07996L474.53183,471.7202C472.86942,477.65405,468.4935,490.71655,468.04294,491.2644C468.00485,491.30228,467.92645,491.32047,467.81152,491.32047C466.2657,491.32047,458.11285,488.02997,452.63962,485.13574C444.66675,480.82312,438.24207,476.06555,431.9712,469.76147C426.84506,464.55817,425.6514,463.05804,423.66544,459.2104C420.68668,453.41388,419.9977,449.76935,420.81088,444.18243C422.13266,434.9544,428.0914,427.1855,439.5887,419.63068C450.65897,412.38348,464.46338,408.76474,477.34232,408.76474C490.34216,408.76474,502.39908,412.45175,509.74942,419.81583C511.59097,421.61722,513.2324,423.6177,513.4304,424.21695C513.62585,424.89682,513.9281,425.2305,514.26526,425.2305C514.6958,425.2305,515.1833,424.6863,515.5779,423.62393C516.5831,420.88187,520.2894,415.70193,523.49146,412.56656C530.94604,405.25076,541.6886,400.03958,553.2706,398.17386C557.025,397.56964,560.17737,397.2645,563.2521,397.2645 Z"/> </g> <g style="fill:rgb(0,0,0); fill-opacity:1.0; stroke-linejoin: miter"> <path d="M556.8165,245.78452C556.8165,245.78452,556.8166,245.78452,556.8166,245.78452C557.116,245.78537,559.35297,249.08481,561.83734,253.13327C570.33405,266.92868,582.40356,288.31818,582.4004,289.5158C582.39954,289.81512,574.85474,293.53778,565.6115,297.90475C556.36835,302.22177,548.7232,306.04416,548.62274,306.34323C548.4722,306.64218,549.7592,310.58774,551.3941,315.08334C555.15936,325.42282,560.0096,340.60556,563.2223,352.29092C565.6937,361.22977,570.1865,379.50552,570.1835,380.65323C570.1824,381.0524,563.84204,382.18338,550.2637,384.1436L530.39526,387.03543L522.96545,384.96976C505.95676,380.13855,488.1058,377.7323,469.23932,377.7323C454.86426,377.7323,439.8996,379.12924,424.2687,381.9149C420.76398,382.54257,417.5085,383.00494,416.5452,383.00494C416.45187,383.00494,416.38007,383.0006,416.33163,382.99167C415.63315,382.8901,414.8384,381.4908,413.25192,377.5942C412.11185,374.69687,410.5745,371.05002,409.8303,369.40146C409.1359,367.8027,408.54105,366.30417,408.5416,366.10458C408.543,365.55576,423.02914,359.95505,428.52243,358.42258C441.20682,354.86313,451.89078,352.89536,464.4689,351.78073C468.14417,351.47516,471.99667,351.3264,475.9289,351.3264C490.04636,351.3264,505.1914,353.24414,516.8523,356.7095C520.29285,357.7167,523.48413,358.62332,523.9828,358.77432C524.01697,358.7842,524.04846,358.7894,524.077,358.7894C524.63165,358.7894,524.10046,356.83167,521.46313,349.13675C517.74896,338.3983,512.04974,323.46262,511.60062,323.4614C511.60062,323.4614,511.60062,323.4614,511.60062,323.4614C511.5003,323.4614,503.5565,327.13306,493.96384,331.64853C481.6314,337.45044,476.08514,339.83188,474.83258,339.83188C474.83173,339.83188,474.83084,339.83188,474.83,339.83188C474.82217,339.83185,474.81433,339.83185,474.8064,339.83185C471.88058,339.83185,461.6842,341.24783,455.01187,342.57394C446.7739,344.19894,436.1368,347.26462,429.0436,350.04062C425.89664,351.22983,422.84964,352.36948,422.30045,352.46786C422.22653,352.4861,422.1535,352.49585,422.08017,352.49585C421.36075,352.49585,420.61194,351.56003,418.71786,348.56613L416.18362,344.4675L417.2336,343.7218C438.28073,329.10645,492.32516,290.775,492.32596,290.47556C492.32663,290.22617,489.79068,286.7762,486.65775,282.72595C481.93332,276.5758,481.13834,275.27612,481.6887,274.72864C482.93918,273.58435,510.89542,250.30405,511.44528,249.95639C511.45645,249.95033,511.46985,249.94733,511.48538,249.94733C512.2336,249.94733,517.9709,256.90634,523.08527,263.95944C524.3282,265.70932,525.5721,267.0599,525.8216,267.06052C525.8216,267.06052,525.82166,267.06052,525.82166,267.06052C526.12225,267.06052,533.0706,262.28876,541.31903,256.4227C549.56775,250.5565,556.56616,245.78452,556.8165,245.78452 Z"/> </g> <g style="fill:rgb(0,0,0); fill-opacity:1.0; stroke-linejoin: miter"> <path d="M432.24667,144.8746C436.41092,144.8746,440.58792,145.30196,444.55203,146.18471C454.52658,148.35683,465.69083,153.52602,473.95792,159.78554C479.48587,163.99196,486.3555,170.29749,490.03726,174.44897C500.03708,185.95276,506.28586,200.69006,506.2537,212.86597C506.2183,226.2893,500.89664,238.4513,490.1879,249.75073L486.0847,254.03125L476.77664,245.12415C471.6495,240.27026,465.17838,234.21521,462.44028,231.7627C459.65244,229.26025,457.36276,227.05847,457.3633,226.85901C457.31406,226.60938,457.86533,225.71252,458.51633,224.86597C459.21725,223.96948,460.6212,221.4783,461.67496,219.28531C463.5314,215.4479,463.58218,215.09866,463.5955,210.05875C463.60825,205.21841,463.51016,204.56937,462.0709,201.57156C460.13547,197.52444,457.69778,194.6735,453.7629,191.91872C448.43338,188.16188,445.94052,187.3069,440.15195,187.29164C439.9425,187.29109,439.74152,187.29074,439.5484,187.29074C435.32462,187.29074,434.85245,187.45401,431.36453,189.115C419.72232,194.87271,410.74002,213.81168,414.15182,225.69693C415.78336,231.49002,419.36545,235.59122,425.3456,238.55115C428.04633,239.8875,428.8134,240.12413,432.32315,240.12413C432.63467,240.12413,432.96777,240.12227,433.32578,240.11914C433.4047,240.11935,433.48257,240.11946,433.55948,240.11946C437.32452,240.11946,438.72287,239.86197,441.51315,238.79346C443.36066,238.05011,445.1081,237.45618,445.3088,237.45618C445.3089,237.45618,445.30896,237.45618,445.30905,237.45618C446.1075,237.45837,465.65097,263.15918,465.69797,264.25708C465.6973,264.5066,457.19333,272.36853,446.83926,281.67273C436.4352,290.92712,419.0779,306.65002,408.2731,316.6018C396.14362,327.69012,388.64297,334.27005,388.04272,334.27005C388.03156,334.27005,388.02277,334.26776,388.0164,334.26318C387.66757,334.06274,385.2773,332.21008,382.6879,330.1073C372.47958,321.99634,360.57468,313.83093,350.0614,307.81522C346.77295,305.9103,344.03253,304.356,343.98267,304.30594C343.83313,304.25577,360.9123,261.53543,361.1626,261.2366C361.17517,261.22516,361.1973,261.2195,361.22876,261.2195C362.7001,261.2195,384.50876,273.5684,394.9952,280.3384C398.8312,282.7936,402.0693,284.84814,402.26877,284.89856C402.2694,284.8988,402.27017,284.89896,402.27103,284.89896C402.6068,284.89896,419.7853,265.5322,419.78622,265.18396C419.78653,265.08398,417.04214,265.0269,413.69894,264.96817C401.72275,264.88663,393.04898,261.4706,386.08212,254.16666C378.31885,246.06192,375.05078,236.4224,374.64294,220.80215C374.37012,210.72147,375.13727,203.63736,377.5581,193.96317C383.00543,171.97072,392.8227,158.1243,408.91254,149.93289C415.3758,146.63914,423.7849,144.8746,432.24667,144.8746 Z"/> </g> <g style="fill:rgb(0,0,0); fill-opacity:1.0; stroke-linejoin: miter"> <path d="M300.11523,143.35565C301.7948,143.35565,303.38428,143.56032,305.38297,143.97098C316.20547,146.29495,321.3258,153.69388,321.29065,167.01762C321.29694,183.53484,314.8323,193.89738,303.35007,195.76323C302.13263,195.96568,300.9351,196.06483,299.76358,196.06483C290.7025,196.06483,283.19833,190.13297,280.08725,180.18242C276.17783,167.74675,278.05865,154.67755,284.51123,148.90605C287.01233,146.61723,291.80865,144.38432,295.35327,143.79485C297.2071,143.50232,298.69342,143.35565,300.11523,143.35565 Z M300.5882,106.5464C287.91122,106.5464,274.57922,109.00497,264.74396,113.473915C260.0476,115.60709,253.54932,119.83147,249.5976,123.41411C238.0929,133.81316,232.56224,149.5174,234.36296,166.78815C236.40735,186.3548,243.54984,202.74126,254.94675,214.29863C264.70145,224.15485,275.81656,229.02472,288.94046,229.05939C288.97275,229.05948,289.00504,229.05951,289.03732,229.05951C297.9851,229.05951,306.64075,225.79005,314.0159,219.59428C315.90662,218.04277,317.4396,216.84705,317.60187,216.84705C317.61127,216.84705,317.6161,216.85107,317.61606,216.8593C317.61002,219.15471,315.86835,236.21634,315.3111,239.35855C314.248,245.14432,311.88367,252.32388,309.9795,255.31302C306.68167,260.52887,303.78928,262.52072,299.46857,262.52072C299.45615,262.52072,299.44373,262.5207,299.43127,262.52066C294.59103,262.4582,290.70572,259.80328,287.6263,254.30597C285.83798,251.25714,283.6141,243.01752,283.62283,239.72406C283.62582,238.57635,283.4293,237.42816,283.13016,237.27753C283.0605,237.23294,282.85678,237.21141,282.5302,237.21141C280.28897,237.21141,272.26135,238.22594,262.06534,239.76703C255.22598,240.84674,253.67795,241.24188,253.67624,241.89069C253.673,243.13812,255.99594,251.62762,257.92685,257.42108C260.5015,265.06293,266.90506,277.85455,270.73395,282.9545C278.54114,293.30472,285.91382,298.11465,295.99048,299.43875C297.38977,299.6141,298.75522,299.70203,300.08798,299.70203C308.828,299.70203,316.1625,295.9215,322.41785,288.23074C333.23187,274.83585,345.73358,245.92618,355.00238,213.01567C365.17773,176.86403,365.88867,153.31253,357.25244,135.67447C352.28906,125.531525,342.5819,116.57352,331.7647,112.25333C327.42798,110.49551,320.34692,108.630516,314.4113,107.6166C310.04437,106.89516,305.36273,106.5464,300.5882,106.5464 Z"/> </g> <g style="fill:rgb(0,0,0); fill-opacity:1.0; stroke-linejoin: miter"> <path d="M172.64508,134.48752C173.14555,134.48752,173.93114,135.93303,174.95506,138.58673C180.8533,153.72235,186.23636,175.0445,189.37503,195.86165C192.61247,217.12813,193.93477,226.61285,195.05849,235.69794C195.69246,241.28851,196.72139,248.47699,197.26198,251.67194C197.80238,254.86713,198.78346,261.30695,199.46968,265.99945C200.15602,270.64227,200.84291,275.08514,200.99068,275.83417L201.28633,277.23212L204.8348,275.19574C215.16428,269.41202,240.45232,257.74713,242.57718,257.74713C242.64201,257.74713,242.68527,257.758,242.7059,257.7802C242.85513,257.9803,245.97305,267.7691,249.535,279.5053C253.14673,291.2914,256.21436,301.23,256.3631,301.57962C256.51154,302.07913,254.81201,303.1724,250.91461,305.1082C247.81665,306.64713,243.46918,308.93106,241.2702,310.17276C234.8234,313.7984,219.27657,324.2368,212.87593,329.25998C209.62556,331.79636,206.67543,334.08408,206.27553,334.33237C206.24028,334.3569,206.19537,334.3695,206.14005,334.3695C205.41075,334.3695,202.86902,332.17987,196.71577,326.27316L187.8061,317.66656L181.51186,301.2824C178.09242,292.29108,172.94028,278.05563,170.06815,269.66452C157.83768,233.60359,154.1713,223.61372,146.78108,206.52779C141.92043,195.28731,136.5558,185.89154,127.35945,172.49371C123.92934,167.54437,121.19612,163.24579,121.19673,162.99628C121.20033,161.64886,169.92546,134.63116,172.62053,134.48871C172.62863,134.48792,172.63683,134.48752,172.64508,134.48752 Z"/> </g> <g style="fill:rgb(0,0,0); fill-opacity:1.0; stroke-linejoin: miter"> <path d="M59.88873,290.44296C68.35072,290.44296,78.48342,296.68887,82.74646,305.3131C84.43402,308.76074,84.58215,309.36,84.52185,313.302C84.51196,317.04468,84.309814,317.9923,82.90509,320.833C79.30687,328.27087,72.57253,332.2428,64.72206,332.2428C60.421432,332.2428,55.785843,331.0508,51.14739,328.58362C47.459946,326.57788,44.32408,323.57544,42.536606,320.1775C41.24562,317.72888,41.14769,317.0299,41.160324,312.23938C41.223404,307.2494,41.27446,306.80054,43.080765,303.06262C46.19203,296.48386,49.544056,293.19943,55.088367,291.21774C56.582348,290.691,58.202362,290.44296,59.88873,290.44296 Z M125.60735,329.51328C126.40058,329.51328,127.27942,329.65375,128.74048,329.936C132.13202,330.59384,137.91327,333.35373,141.84802,336.15854C151.46075,343.07028,153.98486,350.96127,148.52954,357.08493C146.04118,359.95596,143.3603,361.00116,138.81721,361.00116C138.79105,361.00116,138.76482,361.00113,138.73853,361.00107C128.90814,360.92526,117.296936,354.9564,113.97119,348.26096C110.54633,341.31543,114.862434,331.99536,122.45245,330.06918C123.89518,329.69925,124.694595,329.51328,125.60735,329.51328 Z M65.28651,243.00546C59.864803,243.00546,54.172215,243.94684,49.669426,245.6936C40.028553,249.46057,30.578568,256.5216,23.41911,265.43506C8.800357,283.4608,0.5105898,304.6969,0.45938128,324.10828C0.42105117,338.62952,3.6394665,348.1692,11.698948,357.47217C19.758553,366.72522,34.713573,372.5531,50.532093,372.64478C50.582607,372.6449,50.633087,372.645,50.683537,372.645C61.248394,372.645,70.40514,369.71948,81.84649,362.69724C83.99542,361.35577,85.94422,360.2634,86.09452,360.2634L86.0946,360.2634C86.29418,360.2639,87.4378,361.8138,88.630424,363.71323C91.015495,367.56198,95.743095,372.51474,99.1303,374.81906C109.09258,381.63193,125.99805,385.81833,143.5133,385.8646C143.6833,385.86505,143.852,385.86526,144.01944,385.86526C152.256,385.86526,157.43073,385.31772,164.4778,383.62448C174.31453,381.30515,180.56297,377.22964,183.57317,371.09964C185.17851,367.86038,185.22899,367.6608,185.1959,361.27335C185.21092,355.58475,185.06462,354.2869,183.82701,350.54105C181.89684,344.49796,177.62746,336.10312,173.74983,330.55392C169.57393,324.55466,158.4256,313.34735,152.44867,309.09003C147.0694,305.2834,141.73718,302.52472,136.75134,300.91473C133.65372,299.94904,132.34505,299.7796,126.09128,299.7796C125.5,299.7796,124.86452,299.78113,124.17914,299.78363L115.2967,299.81018L115.302315,297.6644C115.31263,293.7722,113.79029,284.4365,112.50379,280.29123C109.386665,270.20297,103.47071,261.75412,94.806335,254.74509C87.38672,248.7872,80.06091,245.12509,72.679375,243.65854C70.381,243.21828,67.86437,243.00546,65.28651,243.00546 Z"/> </g> <g style="fill:rgb(0,0,0); fill-opacity:1.0; stroke-linejoin: miter"> <path d="M110.305305,429.8743C115.27111,429.8743,120.66648,430.27222,123.13432,430.9715C132.10997,433.49017,136.53874,438.19257,136.57005,445.22882C136.61302,447.87372,136.36089,448.87115,135.25792,450.81427C131.09758,457.8393,117.260666,463.24213,103.38787,463.30542C103.25269,463.30588,103.11908,463.30612,102.986984,463.30612C95.17067,463.30612,92.697296,462.46396,88.928825,458.62634C85.54467,455.1742,84.45434,452.32715,84.46844,446.98764C84.47723,443.64426,84.67913,442.79648,86.13348,440.05563C88.79192,434.87302,93.64007,431.94162,102.02752,430.41672C103.967224,430.046,107.0436,429.8743,110.305305,429.8743 Z M34.14529,392.42435C31.737894,392.42435,29.49307,392.46295,28.22355,392.54654C7.460391,394.13846,-7.489932,405.42667,-15.027349,425.21756C-19.248024,436.18472,-20.245216,454.79532,-17.387882,468.77515C-15.121189,479.70947,-10.261874,491.4491,-5.437532,497.5498C3.464997,508.85095,14.278355,514.6183,29.743172,516.3557C32.09042,516.6127,34.553707,516.7415,37.134094,516.7415C51.49988,516.7415,69.49509,512.7485,91.30247,504.64166C128.86504,490.71844,159.25237,472.78436,168.6704,458.9367C175.63359,448.72516,175.31883,435.6502,167.91356,424.25323C162.19817,415.4555,151.0891,408.29022,134.58618,402.80746C122.071754,398.644,108.15121,396.39767,96.59492,396.39767C90.97817,396.39767,85.91993,396.92834,81.85308,398.02744C62.777023,403.21677,52.06358,416.31247,50.763653,436.1699C50.243023,444.35214,51.918865,452.2412,55.645123,458.43872C57.582687,461.68738,63.35447,468.03998,65.74583,469.5434C66.69236,470.14484,67.38938,470.74542,67.23942,470.8448C66.78898,471.3427,52.410686,473.89966,47.26939,474.43494C45.620174,474.61316,44.020115,474.70084,42.474796,474.70084C30.503286,474.70084,21.817038,469.4385,19.01276,460.23828C17.528538,455.39404,17.8465,448.35864,19.703465,444.32162C21.25913,441.03207,25.012213,437.0499,28.060402,435.46115C30.901657,434.07483,37.170162,432.49884,40.073654,432.49884C40.0806,432.49884,40.087524,432.49884,40.094433,432.49887L42.489697,432.50522L42.870342,420.62973C43.03715,414.14304,43.410046,405.21152,43.671158,400.82095C43.88234,396.4302,44.04167,392.78787,44.04167,392.78787C43.717106,392.55936,38.646965,392.42435,34.14529,392.42435 Z"/> </g> <g style="fill:rgb(0,0,0); fill-opacity:1.0; stroke-linejoin: miter"> <path d="M157.4384,498.32904L160.17644,500.83136C161.71953,502.28253,164.60881,504.18646,166.90147,505.24042C173.63112,508.43353,182.52812,510.22,191.07494,510.22C193.54176,510.22,195.97942,510.07117,198.32736,509.7644L201.82156,509.3246L204.70834,512.1765C206.25119,513.72766,207.54483,515.1781,207.54428,515.3778C207.54373,515.5774,184.97598,539.171,157.45468,567.7916C109.06741,618.0642,107.36594,619.9061,108.26193,620.75684C111.24863,623.5592,122.15219,632.9694,128.27664,638.02563C132.60861,641.6299,135.29642,644.23193,135.14578,644.58075C134.79398,645.52795,110.60683,677.65045,110.2574,677.69946C109.808304,677.69824,86.91311,655.18225,79.69736,647.6281C68.89847,636.37177,56.60965,622.4169,46.313725,609.665C35.02277,595.76263,19.657778,575.11273,19.561525,573.7652C19.512941,573.26605,26.05997,569.4909,37.70377,563.1341C47.64176,557.752,55.850174,553.40137,55.99169,553.40137C55.9925,553.40137,55.993042,553.4015,55.993324,553.4018C56.092873,553.5019,58.179787,556.9006,60.66416,560.94916C68.77096,574.18274,75.790306,584.41254,76.71522,584.41254C76.737,584.41254,76.75541,584.40686,76.77036,584.39545C77.12028,584.1469,92.0203,573.00836,109.870224,559.6818C127.77023,546.30566,142.57016,535.2666,142.7703,535.0675C143.02042,534.8187,141.62979,532.3198,139.69125,529.4204C134.07475,520.97235,129.55376,513.3754,130.00322,513.227C130.2531,513.12775,136.54955,509.75104,143.94566,505.67877L157.4384,498.32904 Z"/> </g> <g style="fill:rgb(0,0,0); fill-opacity:1.0; stroke-linejoin: miter"> <path d="M244.10065,578.55835C246.75731,578.55835,249.22923,580.01886,250.63165,582.50885C253.56189,587.7563,253.23352,598.7337,249.64325,616.6888C247.82288,625.716,240.65561,656.5361,238.79129,663.3177C233.15657,683.665,225.9117,693.3406,216.0889,693.3406C214.66977,693.3406,213.19682,693.1386,211.66716,692.73773C207.1292,691.57806,204.03998,689.8235,201.45276,686.92236C195.97974,680.8199,196.00397,671.6381,201.38531,655.7338C204.8551,645.66296,217.96118,614.659,223.78076,602.89764C231.30634,587.5977,237.2649,579.92865,242.4577,578.7447C243.00803,578.61926,243.5582,578.55835,244.10065,578.55835 Z M250.7775,542.58527C249.7563,542.58527,248.80524,542.66437,247.99176,542.8304C244.94604,543.471,237.25122,547.2432,233.1518,550.1268C228.05219,553.75604,218.34839,562.4631,212.69342,568.586C205.98773,575.7542,194.72272,589.8465,187.96083,599.4097C169.97871,625.01166,159.39528,645.54297,155.65858,662.2002C154.75002,666.13995,154.54353,668.73425,154.52547,675.5707C154.50478,683.40515,154.602,684.40344,155.8885,688.54865C158.55959,697.4881,163.47804,705.7348,169.05339,710.88916C175.57475,716.84467,188.13072,724.11346,197.35405,727.2816C203.58623,729.3939,212.36485,730.9142,220.54784,731.23517C222.14935,731.30206,223.646,731.3376,225.05907,731.3376C233.7717,731.3376,239.30724,729.9871,246.65921,726.3139C260.19998,719.66284,268.81308,708.2582,273.24948,691.2037C274.40854,686.9152,274.87094,681.8764,277.46085,645.9542C280.0483,610.9304,280.36496,604.3943,280.1348,597.0581C279.8112,587.32654,279.27252,583.4328,277.00372,573.34674C275.1787,565.2579,273.594,560.6629,270.96185,555.8654C267.13818,548.7692,264.3011,546.0173,258.86713,544.0068C256.46527,543.10333,253.39159,542.58527,250.7775,542.58527 Z"/> </g> <g style="fill:rgb(0,0,0); fill-opacity:1.0; stroke-linejoin: miter"> <path d="M347.695,542.6444C348.24396,542.6459,356.3775,561.6798,375.91528,608.43896C391.03973,644.6073,403.5855,674.6311,403.83386,675.0809C403.94647,675.32385,404.09607,675.4673,404.42563,675.4673C405.11252,675.4673,406.5812,674.84424,410.1264,673.2013C413.32397,671.71265,420.4195,668.13855,425.8662,665.3085C431.26236,662.4288,435.9088,660.09595,436.15945,660.09595C436.1595,660.09595,436.15952,660.09595,436.15955,660.09595C436.45898,660.09674,455.24048,690.83563,457.87262,695.6331C458.22034,696.2329,432.44305,706.9436,418.70697,711.94727C397.02896,719.8243,373.45682,726.948,353.23398,731.7849C341.43515,734.60657,327.96,737.4237,326.45602,737.4237C326.3815,737.4237,326.3364,737.4168,326.3223,737.40265C326.07333,737.2024,322.33936,696.1238,322.5396,695.8749C322.5398,695.8249,327.53183,695.0895,333.57205,694.2572C351.69302,691.7101,360.03067,690.13525,359.9329,689.3366C359.63907,687.24,342.03143,608.74866,341.78247,608.54846C341.7646,608.5214,341.67056,608.5088,341.51212,608.5088C340.7907,608.5088,338.7336,608.771,336.44147,609.1332C330.221,610.177,316.3628,612.17865,315.2903,612.17865C315.25244,612.17865,315.23053,612.17615,315.22543,612.171C315.12582,612.121,314.54373,605.78186,313.86533,598.09534C313.18686,590.45874,312.5569,583.37103,312.4099,582.3725C312.16486,580.6254,312.21497,580.5756,314.31238,579.98236C320.8546,578.0535,328.70544,571.8364,333.3648,564.8126C336.9217,559.5325,338.8288,555.44556,340.4911,549.51184L341.85095,544.7748L344.39868,543.7335C345.7975,543.1384,347.29578,542.69324,347.695,542.6444 Z"/> </g> </g> </svg>